# Blender v3.1.2 OBJ File: ''
# www.blender.org
mtllib Powerup.mtl
o Torus
v 1.250000 0.000000 0.000000
v 1.216506 0.125000 0.000000
v 1.125000 0.216506 0.000000
v 1.000000 0.250000 0.000000
v 0.875000 0.216506 0.000000
v 0.783494 0.125000 0.000000
v 0.750000 0.000000 0.000000
v 0.783494 -0.125000 0.000000
v 0.875000 -0.216506 0.000000
v 1.000000 -0.250000 0.000000
v 1.125000 -0.216506 0.000000
v 1.216506 -0.125000 0.000000
v 0.883883 0.000000 -0.883884
v 0.860200 0.125000 -0.860200
v 0.795495 0.216506 -0.795495
v 0.707107 0.250000 -0.707107
v 0.618718 0.216506 -0.618719
v 0.554014 0.125000 -0.554014
v 0.530330 0.000000 -0.530330
v 0.554014 -0.125000 -0.554014
v 0.618718 -0.216506 -0.618719
v 0.707107 -0.250000 -0.707107
v 0.795495 -0.216506 -0.795495
v 0.860200 -0.125000 -0.860200
v 0.000000 0.000000 -1.250000
v 0.000000 0.125000 -1.216506
v 0.000000 0.216506 -1.125000
v 0.000000 0.250000 -1.000000
v 0.000000 0.216506 -0.875000
v 0.000000 0.125000 -0.783494
v 0.000000 0.000000 -0.750000
v 0.000000 -0.125000 -0.783494
v 0.000000 -0.216506 -0.875000
v 0.000000 -0.250000 -1.000000
v 0.000000 -0.216506 -1.125000
v 0.000000 -0.125000 -1.216506
v -0.883884 0.000000 -0.883883
v -0.860200 0.125000 -0.860200
v -0.795495 0.216506 -0.795495
v -0.707107 0.250000 -0.707107
v -0.618719 0.216506 -0.618718
v -0.554014 0.125000 -0.554013
v -0.530330 0.000000 -0.530330
v -0.554014 -0.125000 -0.554013
v -0.618719 -0.216506 -0.618718
v -0.707107 -0.250000 -0.707107
v -0.795495 -0.216506 -0.795495
v -0.860200 -0.125000 -0.860200
v -1.250000 0.000000 -0.000000
v -1.216506 0.125000 -0.000000
v -1.125000 0.216506 -0.000000
v -1.000000 0.250000 -0.000000
v -0.875000 0.216506 -0.000000
v -0.783494 0.125000 -0.000000
v -0.750000 0.000000 -0.000000
v -0.783494 -0.125000 -0.000000
v -0.875000 -0.216506 -0.000000
v -1.000000 -0.250000 -0.000000
v -1.125000 -0.216506 -0.000000
v -1.216506 -0.125000 -0.000000
v -0.883884 0.000000 0.883883
v -0.860200 0.125000 0.860200
v -0.795495 0.216506 0.795495
v -0.707107 0.250000 0.707107
v -0.618719 0.216506 0.618718
v -0.554014 0.125000 0.554013
v -0.530330 0.000000 0.530330
v -0.554014 -0.125000 0.554013
v -0.618719 -0.216506 0.618718
v -0.707107 -0.250000 0.707107
v -0.795495 -0.216506 0.795495
v -0.860200 -0.125000 0.860200
v 0.000000 0.000000 1.250000
v 0.000000 0.125000 1.216506
v 0.000000 0.216506 1.125000
v 0.000000 0.250000 1.000000
v 0.000000 0.216506 0.875000
v 0.000000 0.125000 0.783494
v 0.000000 0.000000 0.750000
v 0.000000 -0.125000 0.783494
v 0.000000 -0.216506 0.875000
v 0.000000 -0.250000 1.000000
v 0.000000 -0.216506 1.125000
v 0.000000 -0.125000 1.216506
v 0.883883 0.000000 0.883884
v 0.860199 0.125000 0.860200
v 0.795495 0.216506 0.795496
v 0.707106 0.250000 0.707107
v 0.618718 0.216506 0.618719
v 0.554013 0.125000 0.554014
v 0.530330 0.000000 0.530330
v 0.554013 -0.125000 0.554014
v 0.618718 -0.216506 0.618719
v 0.707106 -0.250000 0.707107
v 0.795495 -0.216506 0.795496
v 0.860199 -0.125000 0.860200
vt 0.500000 0.500000
vt 0.625000 0.500000
vt 0.625000 0.583333
vt 0.500000 0.583333
vt 0.625000 0.666667
vt 0.500000 0.666667
vt 0.625000 0.750000
vt 0.500000 0.750000
vt 0.625000 0.833333
vt 0.500000 0.833333
vt 0.625000 0.916667
vt 0.500000 0.916667
vt 0.625000 1.000000
vt 0.500000 1.000000
vt 0.500000 0.000000
vt 0.625000 0.000000
vt 0.625000 0.083333
vt 0.500000 0.083333
vt 0.625000 0.166667
vt 0.500000 0.166667
vt 0.625000 0.250000
vt 0.500000 0.250000
vt 0.625000 0.333333
vt 0.500000 0.333333
vt 0.625000 0.416667
vt 0.500000 0.416667
vt 0.750000 0.500000
vt 0.750000 0.583333
vt 0.750000 0.666667
vt 0.750000 0.750000
vt 0.750000 0.833333
vt 0.750000 0.916667
vt 0.750000 1.000000
vt 0.750000 0.000000
vt 0.750000 0.083333
vt 0.750000 0.166667
vt 0.750000 0.250000
vt 0.750000 0.333333
vt 0.750000 0.416667
vt 0.875000 0.500000
vt 0.875000 0.583333
vt 0.875000 0.666667
vt 0.875000 0.750000
vt 0.875000 0.833333
vt 0.875000 0.916667
vt 0.875000 1.000000
vt 0.875000 0.000000
vt 0.875000 0.083333
vt 0.875000 0.166667
vt 0.875000 0.250000
vt 0.875000 0.333333
vt 0.875000 0.416667
vt 1.000000 0.500000
vt 1.000000 0.583333
vt 1.000000 0.666667
vt 1.000000 0.750000
vt 1.000000 0.833333
vt 1.000000 0.916667
vt 1.000000 1.000000
vt 1.000000 0.000000
vt 1.000000 0.083333
vt 1.000000 0.166667
vt 1.000000 0.250000
vt 1.000000 0.333333
vt 1.000000 0.416667
vt 0.000000 0.500000
vt 0.125000 0.500000
vt 0.125000 0.583333
vt 0.000000 0.583333
vt 0.125000 0.666667
vt 0.000000 0.666667
vt 0.125000 0.750000
vt 0.000000 0.750000
vt 0.125000 0.833333
vt 0.000000 0.833333
vt 0.125000 0.916667
vt 0.000000 0.916667
vt 0.125000 1.000000
vt 0.000000 1.000000
vt 0.000000 0.000000
vt 0.125000 0.000000
vt 0.125000 0.083333
vt 0.000000 0.083333
vt 0.125000 0.166667
vt 0.000000 0.166667
vt 0.125000 0.250000
vt 0.000000 0.250000
vt 0.125000 0.333333
vt 0.000000 0.333333
vt 0.125000 0.416667
vt 0.000000 0.416667
vt 0.250000 0.500000
vt 0.250000 0.583333
vt 0.250000 0.666667
vt 0.250000 0.750000
vt 0.250000 0.833333
vt 0.250000 0.916667
vt 0.250000 1.000000
vt 0.250000 0.000000
vt 0.250000 0.083333
vt 0.250000 0.166667
vt 0.250000 0.250000
vt 0.250000 0.333333
vt 0.250000 0.416667
vt 0.375000 0.500000
vt 0.375000 0.583333
vt 0.375000 0.666667
vt 0.375000 0.750000
vt 0.375000 0.833333
vt 0.375000 0.916667
vt 0.375000 1.000000
vt 0.375000 0.000000
vt 0.375000 0.083333
vt 0.375000 0.166667
vt 0.375000 0.250000
vt 0.375000 0.333333
vt 0.375000 0.416667
vn 0.8968 0.2403 -0.3715
vn 0.6786 0.6786 -0.2811
vn 0.2573 0.9604 -0.1066
vn -0.2573 0.9604 0.1066
vn -0.6786 0.6786 0.2811
vn -0.8968 0.2403 0.3715
vn -0.8968 -0.2403 0.3715
vn -0.6786 -0.6786 0.2811
vn -0.2573 -0.9604 0.1066
vn 0.2573 -0.9604 -0.1066
vn 0.6786 -0.6786 -0.2811
vn 0.8968 -0.2403 -0.3715
vn 0.3715 0.2403 -0.8968
vn 0.2811 0.6786 -0.6786
vn 0.1066 0.9604 -0.2573
vn -0.1066 0.9604 0.2573
vn -0.2811 0.6786 0.6786
vn -0.3715 0.2403 0.8968
vn -0.3715 -0.2403 0.8968
vn -0.2811 -0.6786 0.6786
vn -0.1066 -0.9604 0.2573
vn 0.1066 -0.9604 -0.2573
vn 0.2811 -0.6786 -0.6786
vn 0.3715 -0.2403 -0.8968
vn -0.3715 0.2403 -0.8968
vn -0.2811 0.6786 -0.6786
vn -0.1066 0.9604 -0.2573
vn 0.1066 0.9604 0.2573
vn 0.2811 0.6786 0.6786
vn 0.3715 0.2403 0.8968
vn 0.3715 -0.2403 0.8968
vn 0.2811 -0.6786 0.6786
vn 0.1066 -0.9604 0.2573
vn -0.1066 -0.9604 -0.2573
vn -0.2811 -0.6786 -0.6786
vn -0.3715 -0.2403 -0.8968
vn -0.8968 0.2403 -0.3715
vn -0.6786 0.6786 -0.2811
vn -0.2573 0.9604 -0.1066
vn 0.2573 0.9604 0.1066
vn 0.6786 0.6786 0.2811
vn 0.8968 0.2403 0.3715
vn 0.8968 -0.2403 0.3715
vn 0.6786 -0.6786 0.2811
vn 0.2573 -0.9604 0.1066
vn -0.2573 -0.9604 -0.1066
vn -0.6786 -0.6786 -0.2811
vn -0.8968 -0.2403 -0.3715
usemtl None
s off
f 1/1/1 13/2/1 14/3/1 2/4/1
f 2/4/2 14/3/2 15/5/2 3/6/2
f 3/6/3 15/5/3 16/7/3 4/8/3
f 4/8/4 16/7/4 17/9/4 5/10/4
f 5/10/5 17/9/5 18/11/5 6/12/5
f 6/12/6 18/11/6 19/13/6 7/14/6
f 7/15/7 19/16/7 20/17/7 8/18/7
f 8/18/8 20/17/8 21/19/8 9/20/8
f 9/20/9 21/19/9 22/21/9 10/22/9
f 10/22/10 22/21/10 23/23/10 11/24/10
f 11/24/11 23/23/11 24/25/11 12/26/11
f 12/26/12 24/25/12 13/2/12 1/1/12
f 13/2/13 25/27/13 26/28/13 14/3/13
f 14/3/14 26/28/14 27/29/14 15/5/14
f 15/5/15 27/29/15 28/30/15 16/7/15
f 16/7/16 28/30/16 29/31/16 17/9/16
f 17/9/17 29/31/17 30/32/17 18/11/17
f 18/11/18 30/32/18 31/33/18 19/13/18
f 19/16/19 31/34/19 32/35/19 20/17/19
f 20/17/20 32/35/20 33/36/20 21/19/20
f 21/19/21 33/36/21 34/37/21 22/21/21
f 22/21/22 34/37/22 35/38/22 23/23/22
f 23/23/23 35/38/23 36/39/23 24/25/23
f 24/25/24 36/39/24 25/27/24 13/2/24
f 25/27/25 37/40/25 38/41/25 26/28/25
f 26/28/26 38/41/26 39/42/26 27/29/26
f 27/29/27 39/42/27 40/43/27 28/30/27
f 28/30/28 40/43/28 41/44/28 29/31/28
f 29/31/29 41/44/29 42/45/29 30/32/29
f 30/32/30 42/45/30 43/46/30 31/33/30
f 31/34/31 43/47/31 44/48/31 32/35/31
f 32/35/32 44/48/32 45/49/32 33/36/32
f 33/36/33 45/49/33 46/50/33 34/37/33
f 34/37/34 46/50/34 47/51/34 35/38/34
f 35/38/35 47/51/35 48/52/35 36/39/35
f 36/39/36 48/52/36 37/40/36 25/27/36
f 37/40/37 49/53/37 50/54/37 38/41/37
f 38/41/38 50/54/38 51/55/38 39/42/38
f 39/42/39 51/55/39 52/56/39 40/43/39
f 40/43/40 52/56/40 53/57/40 41/44/40
f 41/44/41 53/57/41 54/58/41 42/45/41
f 42/45/42 54/58/42 55/59/42 43/46/42
f 43/47/43 55/60/43 56/61/43 44/48/43
f 44/48/44 56/61/44 57/62/44 45/49/44
f 45/49/45 57/62/45 58/63/45 46/50/45
f 46/50/46 58/63/46 59/64/46 47/51/46
f 47/51/47 59/64/47 60/65/47 48/52/47
f 48/52/48 60/65/48 49/53/48 37/40/48
f 49/66/6 61/67/6 62/68/6 50/69/6
f 50/69/5 62/68/5 63/70/5 51/71/5
f 51/71/4 63/70/4 64/72/4 52/73/4
f 52/73/3 64/72/3 65/74/3 53/75/3
f 53/75/2 65/74/2 66/76/2 54/77/2
f 54/77/1 66/76/1 67/78/1 55/79/1
f 55/80/12 67/81/12 68/82/12 56/83/12
f 56/83/11 68/82/11 69/84/11 57/85/11
f 57/85/10 69/84/10 70/86/10 58/87/10
f 58/87/9 70/86/9 71/88/9 59/89/9
f 59/89/8 71/88/8 72/90/8 60/91/8
f 60/91/7 72/90/7 61/67/7 49/66/7
f 61/67/18 73/92/18 74/93/18 62/68/18
f 62/68/17 74/93/17 75/94/17 63/70/17
f 63/70/16 75/94/16 76/95/16 64/72/16
f 64/72/15 76/95/15 77/96/15 65/74/15
f 65/74/14 77/96/14 78/97/14 66/76/14
f 66/76/13 78/97/13 79/98/13 67/78/13
f 67/81/24 79/99/24 80/100/24 68/82/24
f 68/82/23 80/100/23 81/101/23 69/84/23
f 69/84/22 81/101/22 82/102/22 70/86/22
f 70/86/21 82/102/21 83/103/21 71/88/21
f 71/88/20 83/103/20 84/104/20 72/90/20
f 72/90/19 84/104/19 73/92/19 61/67/19
f 73/92/30 85/105/30 86/106/30 74/93/30
f 74/93/29 86/106/29 87/107/29 75/94/29
f 75/94/28 87/107/28 88/108/28 76/95/28
f 76/95/27 88/108/27 89/109/27 77/96/27
f 77/96/26 89/109/26 90/110/26 78/97/26
f 78/97/25 90/110/25 91/111/25 79/98/25
f 79/99/36 91/112/36 92/113/36 80/100/36
f 80/100/35 92/113/35 93/114/35 81/101/35
f 81/101/34 93/114/34 94/115/34 82/102/34
f 82/102/33 94/115/33 95/116/33 83/103/33
f 83/103/32 95/116/32 96/117/32 84/104/32
f 84/104/31 96/117/31 85/105/31 73/92/31
f 85/105/42 1/1/42 2/4/42 86/106/42
f 86/106/41 2/4/41 3/6/41 87/107/41
f 87/107/40 3/6/40 4/8/40 88/108/40
f 88/108/39 4/8/39 5/10/39 89/109/39
f 89/109/38 5/10/38 6/12/38 90/110/38
f 90/110/37 6/12/37 7/14/37 91/111/37
f 91/112/48 7/15/48 8/18/48 92/113/48
f 92/113/47 8/18/47 9/20/47 93/114/47
f 93/114/46 9/20/46 10/22/46 94/115/46
f 94/115/45 10/22/45 11/24/45 95/116/45
f 95/116/44 11/24/44 12/26/44 96/117/44
f 96/117/43 12/26/43 1/1/43 85/105/43
